<?xml version="1.0"?>
<svg xmlns="http://www.w3.org/2000/svg" xmlns:xlink="http://www.w3.org/1999/xlink" version="1.1" viewBox="0 0 192 192" width="50px" height="50px"><g fill="none" fill-rule="nonzero" stroke="none" stroke-width="1" stroke-linecap="butt" stroke-linejoin="miter" stroke-miterlimit="10" stroke-dasharray="" stroke-dashoffset="0" font-family="none" font-weight="none" font-size="none" text-anchor="none" style="mix-blend-mode: normal"><path d="M0,192v-192h192v192z" fill="none"/><g fill="#ffffff"><g id="surface1"><path d="M95.28,25.08c-15.06,17.19 -22.935,45.66 -21.96,73.8h43.8c1.35,-28.71 -6.54,-57.06 -21.84,-73.8zM0,61.56c1.485,14.415 4.485,26.07 9.36,37.32h53.28c-14.055,-21.12 -35.235,-32.445 -62.64,-37.32zM192,61.68c-27.855,4.23 -49.35,16.14 -64.32,37.2h54.24c5.1,-11.1 8.34,-23.115 10.08,-37.2zM13.44,109.68c1.455,3.165 3.84,7.125 5.88,9.96l152.28,-0.12c2.22,-3.105 4.215,-6.3 5.76,-9.84zM26.4,129.72c3.15,4.17 5.79,5.865 9.72,9h117.96c3.3,-2.58 6.765,-5.625 9.84,-9zM48.72,147c10.065,6.225 21.87,10.305 35.28,13.08l-1.56,-13.08zM85.68,147c2.595,5.4 5.94,9.93 9.72,14.28c3.72,-4.425 6.135,-8.955 8.76,-14.28zM108.12,147l-2.04,12.36c13.47,-2.475 25.335,-6.39 35.64,-12.36z"/></g></g></g></svg>
